<?xml version="1.0" encoding="UTF-8" standalone="no"?>
<!-- Created with Inkscape (http://www.inkscape.org/) -->

<svg
   width="135.46666mm"
   height="135.46666mm"
   viewBox="0 0 135.46666 135.46666"
   version="1.1"
   id="svg5980"
   inkscape:version="1.2.1 (9c6d41e410, 2022-07-14, custom)"
   sodipodi:docname="faces.svg"
   xmlns:inkscape="http://www.inkscape.org/namespaces/inkscape"
   xmlns:sodipodi="http://sodipodi.sourceforge.net/DTD/sodipodi-0.dtd"
   xmlns="http://www.w3.org/2000/svg"
   xmlns:svg="http://www.w3.org/2000/svg">
  <sodipodi:namedview
     id="namedview5982"
     pagecolor="#606060"
     bordercolor="#717171"
     borderopacity="1"
     inkscape:showpageshadow="0"
     inkscape:pageopacity="0"
     inkscape:pagecheckerboard="0"
     inkscape:deskcolor="#c7c7c7"
     inkscape:document-units="mm"
     showgrid="false"
     inkscape:zoom="0.25"
     inkscape:cx="1744"
     inkscape:cy="216"
     inkscape:window-width="1920"
     inkscape:window-height="1055"
     inkscape:window-x="0"
     inkscape:window-y="25"
     inkscape:window-maximized="1"
     inkscape:current-layer="layer1"
     showguides="true">
    <inkscape:page
       x="0"
       y="0"
       width="135.46666"
       height="135.46666"
       id="page19437" />
    <inkscape:page
       x="145.46666"
       y="0"
       width="135.46666"
       height="135.46666"
       id="page19439" />
    <inkscape:page
       x="290.93332"
       y="0"
       width="135.46666"
       height="135.46666"
       id="page19550" />
    <inkscape:page
       x="436.39996"
       y="0"
       width="135.46664"
       height="135.46666"
       id="page19662" />
    <inkscape:page
       x="581.86658"
       y="0"
       width="135.46661"
       height="135.46666"
       id="page19775" />
    <inkscape:page
       x="727.33319"
       y="0"
       width="135.46661"
       height="135.46666"
       id="page19882" />
  </sodipodi:namedview>
  <defs
     id="defs5977" />
  <g
     inkscape:label="Layer 1"
     inkscape:groupmode="layer"
     id="layer1"
     transform="translate(-17.222353,-38.530972)">
    <path
       id="rect6153"
       style="opacity:1;fill:#ff0000;stroke-width:0.529167;stroke-linecap:round;stroke-linejoin:round"
       d="M 17.222353,38.530972 H 152.68901 V 173.99763 H 17.222353 Z" />
    <rect
       style="opacity:1;fill:none;stroke:#ffffff;stroke-width:1.32291667;stroke-linecap:round;stroke-linejoin:round;stroke-dasharray:none"
       id="rect6156"
       width="109.00833"
       height="109.00833"
       x="30.451517"
       y="51.760136" />
    <g
       aria-label="ଅ"
       id="text12853"
       style="font-size:26.4583px;font-family:'Noto Sans Kannada';-inkscape-font-specification:'Noto Sans Kannada';opacity:1;stroke-width:1.32292;stroke-linecap:round;stroke-linejoin:round;fill:#ffffff"
       transform="matrix(4.2363605,0,0,4.2363605,267.47446,-338.48761)">
      <path
         id="path12855"
         sodipodi:type="inkscape:offset"
         inkscape:radius="-0.30259368"
         inkscape:original="M -47.964844 96.068359 C -48.934981 96.068359 -49.703134 96.367076 -50.267578 96.966797 C -50.814383 97.54888 -51.087891 98.326737 -51.087891 99.296875 C -51.087891 99.702569 -51.043272 100.12543 -50.955078 100.56641 C -50.849245 101.00738 -50.690182 101.44771 -50.478516 101.88867 L -48.679688 101.41211 C -48.838438 101.05933 -48.952882 100.73345 -49.023438 100.43359 C -49.093993 100.11609 -49.128906 99.834835 -49.128906 99.587891 C -49.128906 99.041086 -48.997005 98.616267 -48.732422 98.316406 C -48.467839 97.998906 -48.097343 97.839844 -47.621094 97.839844 C -47.127206 97.839844 -46.75671 98.008611 -46.509766 98.34375 C -46.245183 98.661249 -46.113281 99.101572 -46.113281 99.666016 L -46.113281 101.43945 L -44.261719 101.43945 L -44.261719 99.693359 C -44.261719 99.111277 -44.137569 98.661249 -43.890625 98.34375 C -43.626042 98.008611 -43.255546 97.839844 -42.779297 97.839844 C -42.303048 97.839844 -41.932552 98.016363 -41.667969 98.369141 C -41.385747 98.704279 -41.244141 99.189219 -41.244141 99.824219 C -41.244141 100.7238 -41.438117 101.42988 -41.826172 101.94141 C -42.214227 102.43529 -42.70112 102.81549 -43.283203 103.08008 C -43.847646 103.34466 -44.412119 103.56384 -44.976562 103.74023 L -45.583984 103.92578 C -46.148428 104.10217 -46.740061 104.30586 -47.357422 104.53516 C -47.957143 104.76446 -48.521615 105.06317 -49.050781 105.43359 C -49.579947 105.78637 -50.010564 106.25385 -50.345703 106.83594 C -50.680841 107.40038 -50.849609 108.12391 -50.849609 109.00586 C -50.849609 110.5228 -50.320051 111.72157 -49.261719 112.60352 C -48.185748 113.46782 -46.703765 113.90039 -44.816406 113.90039 C -43.405297 113.90039 -42.020302 113.63659 -40.662109 113.10742 C -39.286278 112.57826 -38.087508 111.81011 -37.064453 110.80469 L -37.144531 113.68945 L -35.080078 113.68945 L -35.080078 96.279297 L -37.144531 96.279297 L -37.144531 108.29102 C -38.238141 109.54338 -39.481529 110.47059 -40.875 111.07031 C -42.250831 111.67004 -43.573752 111.96875 -44.84375 111.96875 C -46.060832 111.96875 -47.013256 111.69524 -47.701172 111.14844 C -48.389087 110.58399 -48.732422 109.83525 -48.732422 108.90039 C -48.732422 108.2654 -48.590815 107.75329 -48.308594 107.36523 C -48.008733 106.97718 -47.560659 106.6513 -46.960938 106.38672 C -46.361216 106.10449 -45.61052 105.81353 -44.710938 105.51367 L -44.181641 105.35547 C -43.740669 105.21436 -43.247977 105.02813 -42.701172 104.79883 C -42.136729 104.56952 -41.597465 104.2611 -41.085938 103.87305 C -40.556771 103.46735 -40.124201 102.9475 -39.789062 102.3125 C -39.453924 101.6775 -39.287109 100.87443 -39.287109 99.904297 C -39.287109 98.687215 -39.587779 97.744496 -40.1875 97.074219 C -40.769583 96.403942 -41.545488 96.068359 -42.515625 96.068359 C -43.767984 96.068359 -44.658334 96.597918 -45.1875 97.65625 C -45.434445 97.162362 -45.795235 96.77441 -46.271484 96.492188 C -46.730094 96.209966 -47.294566 96.068359 -47.964844 96.068359 z "
         d="m -47.964844,96.371094 c -0.908022,0 -1.577123,0.26627 -2.082031,0.802734 -0.489174,0.520734 -0.738281,1.209782 -0.738281,2.123047 0,0.379772 0.0419,0.779995 0.125,1.199215 1.87e-4,7.8e-4 0.0018,0.001 0.002,0.002 0.0819,0.34063 0.219238,0.6837 0.369141,1.02734 l 1.216796,-0.32227 c -0.09255,-0.23842 -0.194566,-0.48218 -0.246093,-0.70117 a 0.30262394,0.30262394 0 0 1 0,-0.002 c -0.07418,-0.33381 -0.113282,-0.636645 -0.113282,-0.912109 0,-0.592662 0.146576,-1.098469 0.46875,-1.466797 0.321685,-0.384628 0.799187,-0.583985 1.341797,-0.583985 0.559139,0 1.043348,0.213922 1.347656,0.621094 0.317153,0.384519 0.462891,0.899745 0.462891,1.507813 v 1.470704 h 1.246094 v -1.443361 c 0,-0.625108 0.133705,-1.147074 0.435547,-1.535156 a 0.30262394,0.30262394 0 0 1 0,-0.002 c 0.319098,-0.404192 0.801874,-0.619141 1.349609,-0.619141 0.549034,0 1.032674,0.226913 1.349609,0.646485 0.337707,0.406321 0.488282,0.965386 0.488282,1.640625 0,0.943081 -0.204788,1.721111 -0.644532,2.300781 a 0.30262394,0.30262394 0 0 1 -0.002,0.004 c -0.416512,0.53009 -0.944535,0.94119 -1.566406,1.22461 -5.64e-4,2.6e-4 -0.0014,-2.7e-4 -0.002,0 -8.29e-4,3.7e-4 -0.0011,0.002 -0.002,0.002 -0.575148,0.26938 -1.152129,0.4937 -1.728516,0.67383 a 0.30262394,0.30262394 0 0 1 -0.002,0 l -0.607422,0.18554 c -0.558101,0.17445 -1.143429,0.37605 -1.755859,0.60352 -0.576394,0.22053 -1.116522,0.50734 -1.625,0.86328 a 0.30262394,0.30262394 0 0 1 -0.0059,0.004 c -0.489552,0.32637 -0.887003,0.75511 -1.201172,1.30078 a 0.30262394,0.30262394 0 0 1 -0.002,0.004 c -0.29995,0.50518 -0.460937,1.17228 -0.460937,2.01563 0,1.44652 0.485642,2.53783 1.478516,3.36523 1.008347,0.80805 2.41334,1.22657 4.251953,1.22657 1.373396,0 2.719869,-0.25523 4.044922,-0.77149 a 0.30262394,0.30262394 0 0 1 0,-0.002 c 1.339221,-0.51508 2.500414,-1.25778 3.49414,-2.23438 a 0.30262394,0.30262394 0 0 1 0.515625,0.22266 l -0.07227,2.57422 h 1.451172 V 96.582031 h -1.458985 v 11.708989 a 0.30262394,0.30262394 0 0 1 -0.07422,0.19921 c -1.119681,1.28222 -2.402383,2.23877 -3.839843,2.85743 -1.406595,0.6129 -2.771003,0.92382 -4.087891,0.92382 -1.262416,0 -2.288982,-0.28584 -3.044922,-0.88671 a 0.30262394,0.30262394 0 0 1 -0.0039,-0.002 c -0.75119,-0.61637 -1.142578,-1.47347 -1.142578,-2.48242 0,-0.67998 0.154039,-1.26136 0.482422,-1.71289 a 0.30262394,0.30262394 0 0 1 0.0039,-0.008 c 0.33769,-0.43701 0.829543,-0.78774 1.458984,-1.06641 0.61525,-0.28954 1.375823,-0.58426 2.283203,-0.88672 a 0.30262394,0.30262394 0 0 1 0.0098,-0.002 l 0.529297,-0.1582 h -0.0059 c 0.429681,-0.1375 0.91417,-0.32005 1.455079,-0.54688 a 0.30262394,0.30262394 0 0 1 0.0039,-0.002 c 0.539052,-0.219 1.053471,-0.51195 1.544922,-0.88477 0.493306,-0.3782 0.896099,-0.8607 1.21289,-1.46093 0.305329,-0.57852 0.466797,-1.33214 0.466797,-2.267583 0,-1.167247 -0.283044,-2.026247 -0.822265,-2.628906 a 0.30262394,0.30262394 0 0 1 -0.0039,-0.002 c -0.52758,-0.607517 -1.199253,-0.902344 -2.099609,-0.902344 -1.167058,0 -1.913885,0.446911 -2.400391,1.419922 a 0.30262394,0.30262394 0 0 1 -0.542968,0 c -0.222569,-0.445135 -0.537515,-0.784673 -0.966797,-1.039063 a 0.30262394,0.30262394 0 0 1 -0.0039,-0.002 c -0.4027,-0.247816 -0.907496,-0.378906 -1.535156,-0.378906 z"
         style="fill:#ffffff" />
    </g>
    <path
       id="rect19493"
       style="opacity:1;fill:#008000;stroke-width:1.32292;stroke-linecap:round;stroke-linejoin:round"
       d="M 162.68901,38.530972 H 298.15567 V 173.99763 H 162.68901 Z" />
    <rect
       style="opacity:1;fill:none;stroke:#ffffff;stroke-width:1.32292;stroke-linecap:round;stroke-linejoin:round;stroke-dasharray:none"
       id="rect19547"
       width="109.00833"
       height="109.00833"
       x="175.91817"
       y="51.760136" />
    <g
       aria-label="ଆ"
       id="text16497"
       style="font-size:26.4583px;font-family:'Noto Sans Kannada';-inkscape-font-specification:'Noto Sans Kannada';opacity:1;fill:#ffffff;stroke-width:1.32292;stroke-linecap:round;stroke-linejoin:round"
       transform="matrix(4.0288421,0,0,4.0288421,316.06278,-255.24165)">
      <path
         id="path19419"
         style="fill:#ffffff"
         sodipodi:type="inkscape:offset"
         inkscape:radius="-0.12862246"
         inkscape:original="M -28.785156 80.8125 C -29.755294 80.8125 -30.521494 81.113169 -31.085938 81.712891 C -31.632742 82.294973 -31.90625 83.070878 -31.90625 84.041016 C -31.90625 84.44671 -31.861631 84.869575 -31.773438 85.310547 C -31.667604 85.751518 -31.510495 86.193794 -31.298828 86.634766 L -29.605469 86.158203 C -29.764219 85.805426 -29.878663 85.469843 -29.949219 85.152344 C -30.002132 84.834844 -30.027344 84.536128 -30.027344 84.253906 C -30.027344 83.654184 -29.895443 83.194452 -29.630859 82.876953 C -29.348638 82.541814 -28.960686 82.375 -28.466797 82.375 C -27.937631 82.375 -27.539973 82.568976 -27.275391 82.957031 C -27.010807 83.327447 -26.878906 83.794931 -26.878906 84.359375 L -26.878906 86.183594 L -25.107422 86.183594 L -25.107422 84.384766 C -25.107422 83.837961 -24.983272 83.370477 -24.736328 82.982422 C -24.489384 82.576728 -24.101432 82.375 -23.572266 82.375 C -23.060738 82.375 -22.663081 82.559271 -22.380859 82.929688 C -22.098638 83.300104 -21.958984 83.812206 -21.958984 84.464844 C -21.958984 85.417342 -22.160713 86.158334 -22.566406 86.6875 C -22.9721 87.199027 -23.474497 87.58698 -24.074219 87.851562 C -24.656301 88.098506 -25.230478 88.309939 -25.794922 88.486328 L -26.402344 88.671875 C -26.966788 88.848264 -27.558421 89.049992 -28.175781 89.279297 C -28.775503 89.508602 -29.339975 89.809271 -29.869141 90.179688 C -30.398307 90.532465 -30.830877 90.999949 -31.166016 91.582031 C -31.501154 92.146475 -31.667969 92.87001 -31.667969 93.751953 C -31.667969 95.268896 -31.13841 96.467666 -30.080078 97.349609 C -29.004107 98.213914 -27.524077 98.646484 -25.636719 98.646484 C -24.225609 98.646484 -22.840615 98.382682 -21.482422 97.853516 C -20.106591 97.32435 -18.905867 96.556197 -17.882812 95.550781 L -17.962891 98.435547 L -15.898438 98.435547 L -15.898438 81.025391 L -17.962891 81.025391 L -17.962891 93.037109 C -19.056501 94.289469 -20.299889 95.214732 -21.693359 95.814453 C -23.069191 96.414175 -24.392111 96.714844 -25.662109 96.714844 C -26.879191 96.714844 -27.831615 96.441337 -28.519531 95.894531 C -29.207447 95.330088 -29.552734 94.581344 -29.552734 93.646484 C -29.552734 93.011485 -29.411128 92.499383 -29.128906 92.111328 C -28.829046 91.723273 -28.379018 91.397396 -27.779297 91.132812 C -27.179575 90.850591 -26.428879 90.559626 -25.529297 90.259766 L -25 90.099609 C -24.559029 89.958498 -24.066337 89.774227 -23.519531 89.544922 C -22.955088 89.315617 -22.417777 89.007196 -21.90625 88.619141 C -21.377084 88.213447 -20.944514 87.69164 -20.609375 87.056641 C -20.274237 86.421641 -20.105469 85.620528 -20.105469 84.650391 C -20.105469 83.433309 -20.406138 82.488636 -21.005859 81.818359 C -21.587942 81.148083 -22.363847 80.8125 -23.333984 80.8125 C -24.586344 80.8125 -25.476693 81.342059 -26.005859 82.400391 C -26.252804 81.906502 -26.615548 81.51855 -27.091797 81.236328 C -27.550408 80.954107 -28.11488 80.8125 -28.785156 80.8125 z M -12.671875 81.025391 L -12.671875 98.435547 L -10.607422 98.435547 L -10.607422 81.025391 L -12.671875 81.025391 z "
         d="m -28.785156,80.941406 c -0.943563,0 -1.667697,0.286332 -2.207032,0.859375 -0.522405,0.556109 -0.785156,1.294271 -0.785156,2.240235 0,0.396263 0.04413,0.810493 0.13086,1.24414 0.09569,0.397494 0.238099,0.796621 0.421875,1.195313 l 1.455078,-0.408203 c -0.129731,-0.307533 -0.241684,-0.609065 -0.304688,-0.892578 a 0.12863532,0.12863532 0 0 1 -0.002,-0.0059 c -0.05397,-0.323869 -0.08008,-0.63004 -0.08008,-0.919922 0,-0.618581 0.135564,-1.110726 0.425781,-1.458984 a 0.12863532,0.12863532 0 0 1 0.002,0 c 0.306085,-0.363477 0.738868,-0.548828 1.261719,-0.548828 0.560599,0 1.00974,0.217539 1.296875,0.638672 0.281921,0.39539 0.419922,0.890804 0.419922,1.474609 v 1.695313 h 1.513672 v -1.669922 c 0,-0.565587 0.129682,-1.057993 0.390625,-1.46875 v -0.002 c 0.268291,-0.439739 0.712158,-0.667968 1.273437,-0.667968 0.542418,0 0.987911,0.205079 1.292969,0.605468 0.304459,0.399603 0.449219,0.942295 0.449219,1.613282 0,0.970658 -0.206323,1.741942 -0.634766,2.300781 a 0.12863532,0.12863532 0 0 1 0,0.002 c -0.418144,0.527226 -0.938707,0.928556 -1.55664,1.201172 a 0.12863532,0.12863532 0 0 1 -0.002,0.002 c -0.585777,0.248512 -1.16375,0.460962 -1.732421,0.638672 a 0.12863532,0.12863532 0 0 1 -0.002,0 l -0.607422,0.185547 c -0.561717,0.17557 -1.150936,0.377156 -1.765625,0.605469 -0.589216,0.225444 -1.143803,0.520583 -1.664063,0.884765 a 0.12863532,0.12863532 0 0 1 -0.002,0.002 c -0.512448,0.341632 -0.931694,0.792961 -1.257813,1.359375 a 0.12863532,0.12863532 0 0 1 0,0.002 c -0.320069,0.539064 -0.484375,1.237791 -0.484374,2.103515 0,1.487009 0.510508,2.639291 1.541015,3.498047 1.047311,0.840692 2.494373,1.267578 4.361328,1.267578 1.39508,0 2.763316,-0.259525 4.107422,-0.783203 1.360308,-0.523195 2.546111,-1.282284 3.556641,-2.275391 a 0.12863532,0.12863532 0 0 1 0.21875,0.0957 l -0.07617,2.751953 h 1.802734 V 81.154297 h -1.80664 v 11.882812 a 0.12863532,0.12863532 0 0 1 -0.03125,0.08398 c -1.104736,1.2651 -2.365269,2.202818 -3.777344,2.810547 -1.389082,0.605497 -2.729233,0.912109 -4.019531,0.912109 -1.236352,0 -2.22067,-0.277867 -2.9375,-0.847656 a 0.12863532,0.12863532 0 0 1 -0.002,-0.002 c -0.714721,-0.586437 -1.080079,-1.381126 -1.080079,-2.347657 0,-0.654121 0.147375,-1.196292 0.449219,-1.611328 a 0.12863532,0.12863532 0 0 1 0.002,-0.002 c 0.316339,-0.409381 0.783645,-0.746969 1.396485,-1.017578 0.60632,-0.285326 1.360774,-0.575988 2.263672,-0.876953 a 0.12863532,0.12863532 0 0 1 0.0039,-0.002 l 0.527344,-0.160157 c 0.4365,-0.13968 0.926644,-0.322628 1.470703,-0.550781 0.553553,-0.224881 1.080865,-0.526527 1.583984,-0.908203 0.513764,-0.393885 0.934328,-0.901166 1.261719,-1.521484 0.322614,-0.611271 0.488281,-1.390483 0.488281,-2.345703 0,-1.195899 -0.293266,-2.104652 -0.867187,-2.746094 a 0.12863532,0.12863532 0 0 1 -0.002,-0.002 c -0.558915,-0.643599 -1.289993,-0.960938 -2.230468,-0.960938 -1.216102,0 -2.045609,0.49356 -2.556641,1.515625 a 0.12863532,0.12863532 0 0 1 -0.230469,0 c -0.236462,-0.472923 -0.580692,-0.838905 -1.037109,-1.109375 a 0.12863532,0.12863532 0 0 1 -0.002,-0.002 c -0.434846,-0.267596 -0.97284,-0.404297 -1.625,-0.404297 z m 16.242187,0.212891 v 17.152344 h 1.806641 V 81.154297 Z" />
    </g>
    <path
       id="rect19553"
       style="opacity:1;fill:#ff7f2a;stroke-width:1.32292;stroke-linecap:round;stroke-linejoin:round"
       d="M 308.15567,38.530972 H 443.62231 V 173.99763 H 308.15567 Z" />
    <rect
       style="opacity:1;fill:none;stroke:#ffffff;stroke-width:1.32292;stroke-linecap:round;stroke-linejoin:round;stroke-dasharray:none"
       id="rect19659"
       width="109.00833"
       height="109.00833"
       x="321.38483"
       y="51.760136" />
    <g
       aria-label="ଇ"
       id="text17227"
       style="font-size:26.4583px;font-family:'Noto Sans Kannada';-inkscape-font-specification:'Noto Sans Kannada';opacity:1;stroke-width:1.32292;stroke-linecap:round;stroke-linejoin:round;fill:#ffffff"
       transform="matrix(4.5170022,0,0,4.5170022,557.2126,-40.099769)">
      <path
         id="path19422"
         style="fill:#ffffff"
         sodipodi:type="inkscape:offset"
         inkscape:radius="-0.26547858"
         inkscape:original="M -40.595703 22.509766 C -41.759868 22.509766 -42.888813 22.659124 -43.982422 22.958984 C -45.076032 23.258845 -46.063369 23.70112 -46.945312 24.283203 C -47.809617 24.847647 -48.498238 25.561477 -49.009766 26.425781 C -49.521293 27.290086 -49.777344 28.287128 -49.777344 29.416016 C -49.777344 30.28032 -49.600824 31.118299 -49.248047 31.929688 C -48.89527 32.723436 -48.330797 33.462475 -47.554688 34.150391 C -47.678159 34.661918 -47.740234 35.22639 -47.740234 35.84375 C -47.740234 37.272498 -47.439566 38.383985 -46.839844 39.177734 C -46.240122 39.953844 -45.437056 40.341797 -44.431641 40.341797 C -43.232198 40.341797 -42.36901 39.742411 -41.839844 38.542969 C -41.2754 39.742411 -40.38505 40.341797 -39.167969 40.341797 C -38.162553 40.341797 -37.376943 39.946092 -36.8125 39.152344 C -36.248056 38.358594 -35.966797 37.247107 -35.966797 35.818359 C -35.966797 34.371972 -36.248056 33.252733 -36.8125 32.458984 C -37.376943 31.665235 -38.162553 31.267578 -39.167969 31.267578 C -40.402689 31.267578 -41.293039 31.859212 -41.839844 33.041016 C -42.351371 31.859212 -43.214559 31.267578 -44.431641 31.267578 C -45.437056 31.267578 -46.240122 31.655531 -46.839844 32.431641 C -47.457204 31.620253 -47.765625 30.712447 -47.765625 29.707031 C -47.765625 28.560505 -47.431995 27.598376 -46.761719 26.822266 C -46.073803 26.028516 -45.191205 25.436883 -44.115234 25.048828 C -43.039263 24.643134 -41.900615 24.441406 -40.701172 24.441406 C -39.731034 24.441406 -38.778609 24.573308 -37.84375 24.837891 C -36.891251 25.102474 -36.028063 25.507883 -35.251953 26.054688 C -34.475843 26.601492 -33.859001 27.297865 -33.400391 28.144531 C -32.94178 28.973558 -32.710938 29.953144 -32.710938 31.082031 C -32.710938 31.981613 -32.879705 32.854506 -33.214844 33.701172 C -33.549982 34.530199 -34.104749 35.315809 -34.880859 36.056641 L -31.732422 40.369141 L -30.039062 39.099609 L -32.552734 35.898438 C -31.882457 35.069411 -31.397517 34.213975 -31.097656 33.332031 C -30.780157 32.432449 -30.621094 31.522689 -30.621094 30.605469 C -30.621094 29.247276 -30.912058 28.065962 -31.494141 27.060547 C -32.058584 26.055131 -32.817033 25.217152 -33.769531 24.546875 C -34.722031 23.858959 -35.798604 23.346857 -36.998047 23.011719 C -38.179851 22.67658 -39.378621 22.509766 -40.595703 22.509766 z M -44.40625 32.960938 C -43.277363 32.960937 -42.712891 33.903657 -42.712891 35.791016 C -42.712891 37.696014 -43.277363 38.648438 -44.40625 38.648438 C -44.935416 38.648437 -45.35053 38.411796 -45.650391 37.935547 C -45.950251 37.441658 -46.099609 36.725876 -46.099609 35.791016 C -46.099609 34.873795 -45.950251 34.177421 -45.650391 33.701172 C -45.35053 33.207283 -44.935416 32.960938 -44.40625 32.960938 z M -39.246094 32.960938 C -38.699289 32.960937 -38.286128 33.207283 -38.003906 33.701172 C -37.721685 34.177421 -37.580078 34.873795 -37.580078 35.791016 C -37.580078 37.696014 -38.134846 38.648438 -39.246094 38.648438 C -39.792899 38.648437 -40.217717 38.411796 -40.517578 37.935547 C -40.817439 37.441658 -40.966797 36.725876 -40.966797 35.791016 C -40.966797 33.903657 -40.39262 32.960938 -39.246094 32.960938 z "
         d="m -40.595703,22.775391 c -1.141459,0 -2.246051,0.145969 -3.316406,0.439453 -1.068707,0.293032 -2.029202,0.723101 -2.886719,1.289062 a 0.26550513,0.26550513 0 0 1 -0.002,0.002 c -0.832561,0.543713 -1.489498,1.225119 -1.980469,2.054688 -0.485726,0.82071 -0.730469,1.766724 -0.730469,2.855469 0,0.828157 0.168774,1.628411 0.507813,2.408203 0.335005,0.752708 0.872493,1.459957 1.625,2.126953 a 0.26550513,0.26550513 0 0 1 0.08203,0.261719 c -0.117781,0.487952 -0.177734,1.031295 -0.177734,1.630859 0,1.391503 0.292113,2.441136 0.845703,3.173828 0.555642,0.718441 1.260656,1.058594 2.197265,1.058594 1.111,0 1.850295,-0.508846 2.34961,-1.640625 a 0.26550513,0.26550513 0 0 1 0.482422,-0.0059 c 0.533155,1.132952 1.301721,1.646484 2.43164,1.646484 0.935759,0 1.617502,-0.345229 2.138672,-1.078125 0.52075,-0.732305 0.796875,-1.78578 0.796875,-3.179688 0,-1.411971 -0.276598,-2.473439 -0.796875,-3.205078 -0.521289,-0.733064 -1.203256,-1.080078 -2.138672,-1.080078 -1.149914,0 -1.916774,0.506366 -2.43164,1.619141 a 0.26550513,0.26550513 0 0 1 -0.484375,-0.0059 c -0.48111,-1.11153 -1.216609,-1.613281 -2.347657,-1.613281 -0.937122,0 -1.641483,0.3413 -2.197265,1.060547 a 0.26550513,0.26550513 0 0 1 -0.421875,-0.002 c -0.649341,-0.85342 -0.980469,-1.825058 -0.980469,-2.884766 0,-1.198027 0.355627,-2.233323 1.068359,-3.058593 0.717841,-0.828278 1.642417,-1.446064 2.753907,-1.847657 l 0.0039,-0.002 c 1.105459,-0.416245 2.276184,-0.623047 3.503906,-0.623047 0.993561,0 1.970252,0.135446 2.927734,0.40625 0.980029,0.27223 1.87246,0.691259 2.673829,1.25586 0.808722,0.569781 1.456537,1.298966 1.933593,2.179687 0.482421,0.873051 0.720704,1.900339 0.720704,3.064453 0,0.932786 -0.176542,1.84043 -0.523438,2.716797 a 0.26550513,0.26550513 0 0 1 0,0.002 c -0.325103,0.804204 -0.866269,1.557136 -1.574219,2.269531 l 2.865235,3.923829 1.261718,-0.945313 -2.345703,-2.986328 a 0.26550513,0.26550513 0 0 1 0.002,-0.330078 c 0.653501,-0.808278 1.121534,-1.63744 1.410157,-2.486328 a 0.26550513,0.26550513 0 0 1 0.002,-0.002 c 0.308064,-0.872852 0.460937,-1.752145 0.460937,-2.638672 0,-1.320278 -0.281765,-2.451531 -0.83789,-3.41211 a 0.26550513,0.26550513 0 0 1 -0.002,-0.002 c -0.545573,-0.971802 -1.273737,-1.779217 -2.195313,-2.427734 a 0.26550513,0.26550513 0 0 1 -0.0039,-0.002 c -0.926224,-0.668939 -1.972942,-1.166785 -3.144531,-1.494141 -1.158716,-0.328591 -2.332567,-0.492187 -3.525391,-0.492187 z m -3.810547,9.919921 c 0.638343,0 1.175761,0.297403 1.498047,0.835938 0.322286,0.538535 0.460937,1.28962 0.460937,2.259766 0,0.97872 -0.139133,1.736287 -0.460937,2.279296 -0.321804,0.54301 -0.858943,0.843751 -1.498047,0.84375 -0.608313,-1e-6 -1.131155,-0.301711 -1.46875,-0.83789 a 0.26550513,0.26550513 0 0 1 -0.002,-0.002 c -0.338618,-0.557726 -0.488281,-1.320067 -0.488281,-2.283203 0,-0.944884 0.148314,-1.687328 0.488281,-2.228516 l 0.002,-0.002 c 0.336004,-0.55174 0.85813,-0.865235 1.46875,-0.865235 z m 5.160156,0 c 0.626541,-1e-6 1.153926,0.317222 1.472656,0.875 0.318789,0.540086 0.458985,1.278162 0.458985,2.220704 0,0.978269 -0.136733,1.73456 -0.453125,2.277343 -0.316392,0.542783 -0.847047,0.845704 -1.478516,0.845703 -0.623399,-1e-6 -1.157123,-0.299525 -1.496094,-0.83789 a 0.26550513,0.26550513 0 0 1 -0.002,-0.002 c -0.338618,-0.557726 -0.488281,-1.320067 -0.488281,-2.283203 0,-0.970601 0.141059,-1.722993 0.46875,-2.261719 0.327691,-0.538726 0.871553,-0.833984 1.517578,-0.833985 z"
         transform="translate(-0.178599,0.97714052)" />
    </g>
    <path
       id="rect19665"
       style="opacity:1;fill:#0000aa;stroke-width:1.32292;stroke-linecap:round;stroke-linejoin:round"
       d="M 453.62228,38.530972 H 589.0889 V 173.99763 H 453.62228 Z" />
    <rect
       style="opacity:1;fill:none;stroke:#ffffff;stroke-width:1.32292;stroke-linecap:round;stroke-linejoin:round;stroke-dasharray:none"
       id="rect19772"
       width="109.00833"
       height="109.00833"
       x="466.85144"
       y="51.760136" />
    <g
       aria-label="ଈ"
       id="text17957"
       style="font-size:26.4583px;font-family:'Noto Sans Kannada';-inkscape-font-specification:'Noto Sans Kannada';opacity:1;fill:#ffffff;stroke-width:1.32292;stroke-linecap:round;stroke-linejoin:round"
       transform="matrix(4.6233571,0,0,4.6233571,547.11529,-57.700941)">
      <path
         id="path19425"
         style="fill:#ffffff"
         sodipodi:type="inkscape:offset"
         inkscape:radius="-0.21392469"
         inkscape:original="M -4.4082031 26.548828 C -5.3959797 26.548828 -6.348404 26.698186 -7.265625 26.998047 C -8.1652072 27.280268 -8.9760252 27.730296 -9.6992188 28.347656 C -10.404774 28.965016 -10.95954 29.748673 -11.365234 30.701172 C -12.51176 30.948117 -13.483594 31.460218 -14.277344 32.236328 C -15.053454 33.012438 -15.441406 33.992024 -15.441406 35.173828 C -15.441406 35.897021 -15.272639 36.593395 -14.9375 37.263672 C -14.584723 37.91631 -14.055164 38.490487 -13.349609 38.984375 C -13.384889 39.284236 -13.402344 39.600408 -13.402344 39.935547 C -13.402344 41.329018 -13.103628 42.423048 -12.503906 43.216797 C -11.904184 43.992907 -11.101118 44.380859 -10.095703 44.380859 C -9.4959819 44.380859 -8.9761279 44.231501 -8.5351562 43.931641 C -8.0941846 43.614141 -7.7508504 43.171866 -7.5039062 42.607422 C -6.9394626 43.789226 -6.0471599 44.380859 -4.8300781 44.380859 C -3.8246627 44.380859 -3.0410062 43.983202 -2.4765625 43.189453 C -1.9121188 42.395704 -1.6289062 41.293922 -1.6289062 39.882812 C -1.6289063 38.471703 -1.9121188 37.377672 -2.4765625 36.601562 C -3.0410062 35.807814 -3.8246627 35.412109 -4.8300781 35.412109 C -6.0647988 35.412109 -6.9571014 35.994038 -7.5039062 37.158203 C -8.0330723 35.994038 -8.8962604 35.412109 -10.095703 35.412109 C -11.38334 35.412109 -12.310556 36.011495 -12.875 37.210938 C -13.263055 36.664133 -13.457031 36.055043 -13.457031 35.384766 C -13.457031 34.767406 -13.288263 34.237846 -12.953125 33.796875 C -12.600348 33.338264 -12.142569 32.99493 -11.578125 32.765625 C -11.013682 32.518681 -10.404592 32.394531 -9.7519531 32.394531 C -9.1169539 32.394531 -8.4826555 32.510929 -7.8476562 32.740234 C -7.2126571 32.969539 -6.6656418 33.340035 -6.2070312 33.851562 L -5.0683594 32.449219 C -5.5975254 31.902414 -6.2240721 31.477595 -6.9472656 31.177734 C -7.6528202 30.860234 -8.3763551 30.666258 -9.1171875 30.595703 C -8.6409381 29.854871 -8.0143913 29.300104 -7.2382812 28.929688 C -6.4445323 28.55927 -5.5890961 28.382751 -4.671875 28.400391 C -3.5077098 28.382752 -2.4408408 28.638803 -1.4707031 29.167969 C -0.50056549 29.697135 0.27533928 30.445878 0.85742188 31.416016 C 1.4395044 32.368514 1.7304687 33.497458 1.7304688 34.802734 C 1.7304688 35.825788 1.5461974 36.778213 1.1757812 37.660156 C 0.80536508 38.5421 0.23118824 39.35487 -0.54492188 40.095703 L 2.6035156 44.380859 L 4.296875 43.164062 L 1.7832031 39.962891 C 2.4887578 39.133864 3.0008598 38.251266 3.3183594 37.316406 C 3.6534978 36.381546 3.8203125 35.42137 3.8203125 34.433594 C 3.8203125 32.77554 3.442065 31.363384 2.6835938 30.199219 C 1.9251225 29.017415 0.92032825 28.117361 -0.33203125 27.5 C -1.5843907 26.865001 -2.9441772 26.548828 -4.4082031 26.548828 z M -10.070312 37.025391 C -8.941425 37.025391 -8.3769531 37.970063 -8.3769531 39.857422 C -8.3769531 41.780059 -8.941425 42.740234 -10.070312 42.740234 C -10.599478 42.740234 -11.012639 42.493889 -11.3125 42 C -11.612361 41.506112 -11.763672 40.792282 -11.763672 39.857422 C -11.763672 38.95784 -11.612361 38.259514 -11.3125 37.765625 C -11.012639 37.271737 -10.599479 37.025391 -10.070312 37.025391 z M -4.9101562 37.025391 C -4.3633514 37.025391 -3.9482375 37.271737 -3.6660156 37.765625 C -3.3837938 38.259514 -3.2441406 38.95784 -3.2441406 39.857422 C -3.2441406 41.780059 -3.7989076 42.740234 -4.9101562 42.740234 C -5.4569611 42.740234 -5.8798268 42.50164 -6.1796875 42.025391 C -6.4795482 41.531502 -6.6308594 40.809921 -6.6308594 39.857422 C -6.6308594 37.970063 -6.0566826 37.025391 -4.9101562 37.025391 z "
         d="m -4.4082031,26.763672 c -0.9662121,0 -1.8954264,0.144711 -2.7910157,0.4375 a 0.21394608,0.21394608 0 0 1 -0.00195,0.002 c -0.8717648,0.273494 -1.6557752,0.706189 -2.3574219,1.304687 -0.6798602,0.594877 -1.2146562,1.350612 -1.6093752,2.277344 a 0.21394608,0.21394608 0 0 1 -0.152343,0.125 c -1.11134,0.239367 -2.041667,0.730542 -2.806641,1.478516 -0.736936,0.737481 -1.099609,1.650732 -1.099609,2.785156 0,0.689912 0.158987,1.35118 0.480468,1.994141 0.335157,0.617548 0.838816,1.164124 1.519532,1.640625 a 0.21394608,0.21394608 0 0 1 0.08984,0.201172 c -0.0342,0.290662 -0.05078,0.59807 -0.05078,0.925781 0,1.362898 0.290192,2.406769 0.853516,3.152344 0.564183,0.729488 1.288408,1.078125 2.238281,1.078125 0.5642029,0 1.0358143,-0.137636 1.439453,-0.41211 0.4051272,-0.292986 0.7236769,-0.69904 0.9570312,-1.232422 a 0.21394608,0.21394608 0 0 1 0.3886719,-0.0059 c 0.5386222,1.12774 1.332714,1.650391 2.4804688,1.650391 0.9490084,0 1.6498821,-0.354571 2.1796875,-1.09961 0.5298469,-0.745097 0.8066406,-1.801107 0.8066406,-3.183594 -1e-7,-1.382485 -0.2784223,-2.429949 -0.8066406,-3.15625 a 0.21394608,0.21394608 0 0 1 0,-0.002 c -0.5297093,-0.744902 -1.2304022,-1.097656 -2.1796875,-1.097656 -1.167505,0 -1.9600744,0.515111 -2.4804688,1.623047 a 0.21394608,0.21394608 0 0 1 -0.3886719,-0.0039 c -0.5040141,-1.108831 -1.2662344,-1.619141 -2.3964842,-1.619141 -1.22125,0 -2.048235,0.533163 -2.585938,1.675781 a 0.21394608,0.21394608 0 0 1 -0.367187,0.03125 c -0.411976,-0.580511 -0.623047,-1.237669 -0.623047,-1.949218 0,-0.656348 0.184701,-1.237683 0.548828,-1.716797 a 0.21394608,0.21394608 0 0 1 0,-0.002 c 0.374627,-0.487017 0.865531,-0.853524 1.458985,-1.095704 l 0.0059,-0.002 c 0.590514,-0.257397 1.228647,-0.388671 1.9062499,-0.388671 0.6611414,0 1.3205111,0.122467 1.9765625,0.359374 0.588608,0.212553 1.0966031,0.562868 1.5410156,1.00586 l 0.8671875,-1.06836 C -5.846573,32.015005 -6.3922649,31.639135 -7.0292969,31.375 a 0.21394608,0.21394608 0 0 1 -0.00586,-0.002 c -0.6853795,-0.308421 -1.384483,-0.49616 -2.1015626,-0.564453 A 0.21394608,0.21394608 0 0 1 -9.296875,30.480469 c 0.4961309,-0.771759 1.1561447,-1.357239 1.9667969,-1.744141 a 0.21394608,0.21394608 0 0 1 0.00195,0 c 0.8212051,-0.383231 1.7081196,-0.567816 2.6523438,-0.550781 1.1975016,-0.01814 2.3040899,0.248076 3.3066406,0.794922 1.00251525,0.546826 1.80990702,1.325756 2.4101562,2.326172 0.603845,0.989136 0.9042968,2.160035 0.9042969,3.496093 0,1.048742 -0.1903655,2.030168 -0.5722656,2.939454 -0.3598936,0.85689 -0.92029314,1.643331 -1.64453128,2.365234 l 2.92187498,3.976562 1.3398438,-0.96289 -2.375,-3.025391 a 0.21394608,0.21394608 0 0 1 0.00586,-0.271484 c 0.6900978,-0.810865 1.1859813,-1.668814 1.4941406,-2.576172 a 0.21394608,0.21394608 0 0 1 0.00195,-0.0039 c 0.3270457,-0.912286 0.4882812,-1.846856 0.4882813,-2.810547 0,-1.62552 -0.3685264,-2.992063 -1.1015626,-4.117188 a 0.21394608,0.21394608 0 0 1 0,-0.002 C 1.7651543,29.163375 0.79332013,28.292372 -0.42578125,27.691406 a 0.21394608,0.21394608 0 0 1 -0.003906,0 C -1.6518861,27.0717 -2.9749769,26.763672 -4.4082031,26.763672 Z m -5.6621089,10.046875 c 0.6241149,0 1.1386743,0.286515 1.4531245,0.8125 0.3144502,0.525985 0.4550781,1.269368 0.4550781,2.234375 0,0.982254 -0.1393339,1.73739 -0.453125,2.271484 -0.3137911,0.534095 -0.8299834,0.826172 -1.4550776,0.826172 -0.595559,0 -1.097058,-0.302322 -1.425782,-0.84375 -0.330749,-0.544762 -0.482422,-1.295963 -0.482422,-2.253906 0,-0.92357 0.152704,-1.66006 0.482422,-2.203125 0.328724,-0.541427 0.830221,-0.84375 1.425782,-0.84375 z m 5.1601558,0 c 0.6110562,0 1.1178361,0.30387 1.4296874,0.849609 0.3102361,0.542914 0.4511719,1.275544 0.4511719,2.197266 0,0.981894 -0.1367808,1.735628 -0.4453125,2.269531 -0.3085317,0.533903 -0.8183086,0.828125 -1.4355468,0.828125 -0.6090345,0 -1.1201597,-0.290681 -1.4511719,-0.816406 a 0.21394608,0.21394608 0 0 1 -0.00195,-0.002 c -0.3312637,-0.545612 -0.4824219,-1.304142 -0.4824219,-2.279297 0,-0.965373 0.1431861,-1.708235 0.4628906,-2.234375 0.3197045,-0.526141 0.8406392,-0.8125 1.4726563,-0.8125 z"
         transform="translate(0.04652583,-3.0199673e-4)" />
    </g>
    <path
       id="rect19777"
       style="opacity:1;fill:#ffff00;stroke-width:1.32292;stroke-linecap:round;stroke-linejoin:round"
       d="M 599.08887,38.530972 H 734.55548 V 173.99763 H 599.08887 Z" />
    <rect
       style="opacity:1;fill:none;stroke:#000000;stroke-width:1.32292;stroke-linecap:round;stroke-linejoin:round;stroke-dasharray:none"
       id="rect19832"
       width="109.00833"
       height="109.00833"
       x="612.31805"
       y="51.760136" />
    <g
       aria-label="ଉ"
       id="text18687"
       style="font-size:26.4583px;font-family:'Noto Sans Kannada';-inkscape-font-specification:'Noto Sans Kannada';opacity:1;stroke-width:1.32292;stroke-linecap:round;stroke-linejoin:round"
       transform="matrix(4.923365,0,0,4.923365,386.45777,189.89899)">
      <path
         id="path19428"
         sodipodi:type="inkscape:offset"
         inkscape:radius="-0.3224417"
         inkscape:original="M 56.482422 -25.916016 C 55.318257 -25.916016 54.189313 -25.766658 53.095703 -25.466797 C 52.002093 -25.166936 51.014756 -24.726614 50.132812 -24.144531 C 49.268508 -23.580087 48.579887 -22.866257 48.068359 -22.001953 C 47.556832 -21.137648 47.300781 -20.130901 47.300781 -18.984375 C 47.300781 -18.031876 47.521919 -17.114365 47.962891 -16.232422 C 48.403862 -15.368118 49.100235 -14.567005 50.052734 -13.826172 C 49.96454 -13.473395 49.921875 -13.120355 49.921875 -12.767578 C 49.921875 -11.709246 50.185678 -10.836353 50.714844 -10.148438 C 51.261648 -9.4605214 51.95027 -8.9387148 52.779297 -8.5859375 C 53.625963 -8.250799 54.498856 -8.0839844 55.398438 -8.0839844 C 56.280381 -8.0839844 57.126112 -8.2430473 57.9375 -8.5605469 C 58.748888 -8.8956853 59.402596 -9.3806259 59.896484 -10.015625 C 60.408012 -10.668263 60.664062 -11.479081 60.664062 -12.449219 C 60.664063 -13.119495 60.505 -13.763499 60.1875 -14.380859 C 59.887639 -15.015859 59.385242 -15.58033 58.679688 -16.074219 L 59.949219 -17.423828 L 58.863281 -18.507812 L 54.841797 -14.302734 L 55.927734 -13.216797 L 57.488281 -14.830078 C 57.929253 -14.494939 58.247379 -14.124444 58.441406 -13.71875 C 58.653073 -13.330695 58.757812 -12.917534 58.757812 -12.476562 C 58.757812 -11.912119 58.598749 -11.43493 58.28125 -11.046875 C 57.981389 -10.65882 57.593437 -10.367855 57.117188 -10.173828 C 56.640937 -9.9974393 56.130789 -9.9101562 55.583984 -9.9101562 C 55.001902 -9.9101562 54.43743 -10.024601 53.890625 -10.253906 C 53.361459 -10.483212 52.919184 -10.826546 52.566406 -11.285156 C 52.213629 -11.743767 52.037109 -12.325695 52.037109 -13.03125 C 52.037109 -13.701527 52.24079 -14.442519 52.646484 -15.253906 C 53.069817 -16.065294 53.793352 -16.86836 54.816406 -17.662109 L 53.943359 -18.826172 C 53.14961 -18.297006 52.478445 -17.749991 51.931641 -17.185547 C 51.402475 -16.638742 50.979609 -16.083975 50.662109 -15.519531 C 49.762527 -16.436753 49.3125 -17.493917 49.3125 -18.693359 C 49.3125 -19.557664 49.506476 -20.316112 49.894531 -20.96875 C 50.300225 -21.639027 50.837536 -22.195747 51.507812 -22.636719 C 52.178089 -23.07769 52.928786 -23.41132 53.757812 -23.640625 C 54.604479 -23.86993 55.477371 -23.986328 56.376953 -23.986328 C 57.805701 -23.986328 59.111165 -23.703115 60.292969 -23.138672 C 61.492412 -22.591867 62.444836 -21.833419 63.150391 -20.863281 C 63.855945 -19.893143 64.208984 -18.764199 64.208984 -17.476562 C 64.208984 -16.612258 64.015008 -15.739365 63.626953 -14.857422 C 63.238898 -13.975479 62.612352 -13.147204 61.748047 -12.371094 L 64.896484 -8.0585938 L 66.589844 -9.328125 L 64.103516 -12.501953 C 64.844348 -13.33098 65.38941 -14.213577 65.742188 -15.148438 C 66.112604 -16.083298 66.298828 -16.991104 66.298828 -17.873047 C 66.298828 -19.037212 66.042777 -20.104081 65.53125 -21.074219 C 65.037361 -22.061995 64.340988 -22.917432 63.441406 -23.640625 C 62.559463 -24.363819 61.517802 -24.920539 60.318359 -25.308594 C 59.136555 -25.714288 57.858254 -25.916016 56.482422 -25.916016 z "
         d="m 56.482422,-25.59375 c -1.136586,0 -2.235415,0.145383 -3.300781,0.4375 -1.063708,0.291662 -2.019094,0.71893 -2.871094,1.28125 a 0.32247394,0.32247394 0 0 1 -0.002,0 c -0.825749,0.539265 -1.476331,1.214993 -1.962891,2.037109 -0.479651,0.810446 -0.722656,1.754997 -0.722656,2.853516 0,0.902592 0.208655,1.76692 0.628906,2.607422 0.415247,0.812882 1.075223,1.579123 1.998047,2.296875 a 0.32247394,0.32247394 0 0 1 0.115234,0.332031 c -0.08185,0.327409 -0.121093,0.653689 -0.121093,0.980469 0,1.00475 0.246191,1.797393 0.726562,2.421875 0.511764,0.6423876 1.150458,1.1267285 1.927735,1.4589842 5.91e-4,2.344e-4 0.0014,-2.341e-4 0.002,0 0.809631,0.3202306 1.638954,0.4804688 2.498047,0.4804688 0.841065,0 1.643192,-0.1515305 2.416015,-0.453125 0.766429,-0.3165685 1.370047,-0.7645576 1.828125,-1.353516 a 0.32247394,0.32247394 0 0 1 0,-0.002 c 0.463768,-0.591703 0.699219,-1.320972 0.699219,-2.234375 10e-7,-0.619263 -0.145585,-1.207996 -0.441406,-1.783203 a 0.32247394,0.32247394 0 0 1 -0.0039,-0.01172 c -0.271986,-0.57597 -0.732435,-1.097469 -1.402343,-1.566406 a 0.32247394,0.32247394 0 0 1 -0.04883,-0.484375 L 59.5,-17.416016 l -0.632812,-0.630859 -3.574219,3.738281 0.630859,0.63086 1.332031,-1.376954 a 0.32247394,0.32247394 0 0 1 0.427735,-0.03125 c 0.470508,0.357587 0.824448,0.764673 1.044922,1.222657 0.232934,0.430672 0.351562,0.898253 0.351562,1.386719 0,0.623429 -0.182621,1.183947 -0.546875,1.630859 -0.334026,0.430641 -0.772806,0.75799 -1.294922,0.970703 a 0.32247394,0.32247394 0 0 1 -0.0098,0.00391 c -0.51409,0.190403 -1.063414,0.2832032 -1.644532,0.2832032 -0.624346,0 -1.233857,-0.1240271 -1.818359,-0.3691406 a 0.32247394,0.32247394 0 0 1 -0.0039,-0.00195 c -0.576765,-0.2499326 -1.066404,-0.6287096 -1.451172,-1.1289066 -0.401455,-0.521892 -0.595703,-1.184024 -0.595703,-1.943359 0,-0.735598 0.221072,-1.524178 0.642578,-2.367188 a 0.32247394,0.32247394 0 0 1 0.0039,-0.0039 c 0.413413,-0.792375 1.112376,-1.552922 2.023438,-2.298828 l -0.498047,-0.664062 c -0.657664,0.459189 -1.258878,0.925557 -1.722657,1.404296 -0.513071,0.530175 -0.918919,1.063106 -1.220703,1.59961 a 0.32247394,0.32247394 0 0 1 -0.511718,0.06836 c -0.948665,-0.967267 -1.441407,-2.120296 -1.441407,-3.40039 0,-0.912549 0.206937,-1.733063 0.626954,-2.439453 a 0.32247394,0.32247394 0 0 1 0.002,-0.002 c 0.430044,-0.710507 1.00266,-1.305511 1.710937,-1.771484 0.700242,-0.460685 1.483522,-0.807527 2.341797,-1.044922 a 0.32247394,0.32247394 0 0 1 0.002,0 c 0.874067,-0.236726 1.775729,-0.357422 2.703125,-0.357422 1.469137,0 2.82301,0.292558 4.048828,0.876953 1.243222,0.566763 2.246607,1.36179 2.986328,2.378907 0.745448,1.024991 1.119141,2.229597 1.119141,3.576172 0,0.912547 -0.205686,1.830572 -0.609375,2.748046 -0.374093,0.850212 -0.980759,1.639523 -1.757813,2.38086 l 2.798829,3.8359372 1.169921,-0.8769531 -2.283203,-2.9140621 a 0.32247394,0.32247394 0 0 1 0.01367,-0.414063 c 0.717427,-0.802836 1.240413,-1.649985 1.578125,-2.544922 a 0.32247394,0.32247394 0 0 1 0.002,-0.0059 c 0.357717,-0.902809 0.533203,-1.768915 0.533203,-2.605469 0,-1.116885 -0.243725,-2.127646 -0.730468,-3.050781 a 0.32247394,0.32247394 0 0 1 -0.0039,-0.0059 c -0.472972,-0.945942 -1.135812,-1.762675 -2.001954,-2.458984 a 0.32247394,0.32247394 0 0 1 -0.0039,-0.002 c -0.848422,-0.695707 -1.852049,-1.234245 -3.017578,-1.611328 a 0.32247394,0.32247394 0 0 1 -0.0059,-0.002 c -1.145316,-0.393168 -2.386155,-0.589844 -3.730469,-0.589844 z" />
    </g>
    <path
       id="rect19884"
       style="opacity:1;fill:#ffffff;stroke:none;stroke-width:1.32292;stroke-linecap:round;stroke-linejoin:round"
       d="M 744.55554,38.530972 H 880.02216 V 173.99763 H 744.55554 Z" />
    <rect
       style="opacity:1;fill:none;stroke:#000000;stroke-width:1.32292;stroke-linecap:round;stroke-linejoin:round;stroke-dasharray:none"
       id="rect19887"
       width="109.00833"
       height="109.00833"
       x="757.78467"
       y="51.760136" />
    <g
       aria-label="ଊ"
       id="text19417"
       style="font-size:26.4583px;font-family:'Noto Sans Kannada';-inkscape-font-specification:'Noto Sans Kannada';opacity:1;stroke-width:1.32292;stroke-linecap:round;stroke-linejoin:round"
       transform="matrix(4.7037357,0,0,4.7037357,320.05934,139.02347)">
      <path
         id="path19431"
         sodipodi:type="inkscape:offset"
         inkscape:radius="-0.26037195"
         inkscape:original="M 103.44336 -16.238281 C 102.22628 -16.238281 101.06047 -16.079218 99.949219 -15.761719 C 98.83797 -15.461858 97.860337 -15.011831 97.013672 -14.412109 C 96.167007 -13.830027 95.495842 -13.106491 95.001953 -12.242188 C 94.508065 -11.395522 94.261719 -10.435346 94.261719 -9.359375 C 94.261719 -7.3132665 95.17923 -5.5752325 97.013672 -4.1464844 C 96.925477 -3.793707 96.880859 -3.440668 96.880859 -3.0878906 C 96.880859 -2.0824752 97.13691 -1.227039 97.648438 -0.52148438 C 98.177603 0.16643141 98.85652 0.69599002 99.685547 1.0664062 C 100.51457 1.4191835 101.40492 1.5957031 102.35742 1.5957031 C 103.23937 1.5957031 104.07735 1.4366402 104.87109 1.1191406 C 105.66484 0.78400213 106.30885 0.29906169 106.80273 -0.3359375 C 107.29663 -0.98857555 107.54297 -1.8013467 107.54297 -2.7714844 C 107.54297 -3.4417613 107.39361 -4.0857647 107.09375 -4.703125 C 106.79388 -5.3204853 106.29924 -5.8752524 105.61133 -6.3691406 L 106.9082 -7.7441406 L 105.82422 -8.8300781 L 101.80273 -4.6230469 L 102.88672 -3.5390625 L 104.42188 -5.125 C 104.84521 -4.7898615 105.15363 -4.4193658 105.34766 -4.0136719 C 105.54168 -3.6256168 105.63867 -3.2202078 105.63867 -2.796875 C 105.63867 -1.9502094 105.3128 -1.306206 104.66016 -0.86523438 C 104.02516 -0.44190158 103.29192 -0.23046875 102.46289 -0.23046875 C 101.52803 -0.23046875 100.71721 -0.5039764 100.0293 -1.0507812 C 99.341381 -1.5975861 98.998047 -2.3657391 98.998047 -3.3535156 C 98.998047 -4.0237926 99.199775 -4.764784 99.605469 -5.5761719 C 100.0288 -6.3875597 100.75234 -7.1886729 101.77539 -7.9824219 L 100.90234 -9.1464844 C 100.1086 -8.6173184 99.439383 -8.0722562 98.892578 -7.5078125 C 98.363412 -6.9610076 97.938593 -6.3965357 97.621094 -5.8144531 C 96.721511 -6.7316741 96.271484 -7.7985432 96.271484 -9.015625 C 96.271484 -10.162152 96.607066 -11.122327 97.277344 -11.898438 C 97.94762 -12.692186 98.820513 -13.291572 99.896484 -13.697266 C 100.99009 -14.10296 102.15591 -14.306641 103.39062 -14.306641 C 104.59007 -14.306641 105.72677 -14.112664 106.80273 -13.724609 C 107.87871 -13.336554 108.75159 -12.762378 109.42188 -12.003906 C 110.10979 -11.263074 110.45313 -10.347516 110.45312 -9.2539062 C 110.45313 -8.4248795 110.23394 -7.5422818 109.79297 -6.6074219 C 110.71019 -6.6074219 111.45118 -6.4580639 112.01562 -6.1582031 C 112.59771 -5.8583425 112.88867 -5.416067 112.88867 -4.8339844 C 112.88867 -4.216624 112.56279 -3.7588451 111.91016 -3.4589844 C 111.27516 -3.1767625 110.45464 -3.0351562 109.44922 -3.0351562 L 108.70703 -2.109375 L 111.93555 2.3085938 L 113.57617 1.0390625 L 111.19531 -1.9238281 C 112.34184 -2.0473002 113.2671 -2.3731777 113.97266 -2.9023438 C 114.67822 -3.4315097 115.03125 -4.1201313 115.03125 -4.9667969 C 115.03125 -5.6899903 114.76745 -6.2893756 114.23828 -6.765625 C 113.72675 -7.2418744 113.04784 -7.5600002 112.20117 -7.71875 C 112.43048 -8.3537492 112.54492 -9.0055043 112.54492 -9.6757812 C 112.54492 -10.681197 112.29663 -11.590956 111.80273 -12.402344 C 111.32649 -13.213731 110.66503 -13.9004 109.81836 -14.464844 C 108.98933 -15.046926 108.02915 -15.489202 106.93555 -15.789062 C 105.84193 -16.088923 104.67808 -16.238281 103.44336 -16.238281 z "
         d="m 103.44336,-15.978516 c -1.19439,0 -2.33479,0.156202 -3.42188,0.466797 a 0.26039799,0.26039799 0 0 1 -0.004,0.002 c -1.085073,0.292798 -2.033864,0.729958 -2.853518,1.310547 a 0.26039799,0.26039799 0 0 1 -0.002,0.002 c -0.816595,0.56141 -1.459062,1.253558 -1.933593,2.083985 a 0.26039799,0.26039799 0 0 1 -0.002,0.002 c -0.469705,0.80521 -0.705078,1.715724 -0.705078,2.751953 0,1.9682716 0.865457,3.6161025 2.652344,5.0078125 a 0.26039799,0.26039799 0 0 1 0.0918,0.2675781 c -0.08329,0.3331702 -0.125,0.6652703 -0.125,0.9960938 0,0.9584556 0.240499,1.7512955 0.714844,2.4082031 5.69e-4,7.3957e-4 0.0014,0.001214 0.002,0.001953 8.53e-4,0.00118 0.0011,0.002727 0.002,0.003906 0.501397,0.64994357 1.138904,1.14680197 1.927734,1.5 5.73e-4,2.4383e-4 0.0014,-2.4366e-4 0.002,0 8.48e-4,3.7904e-4 0.0011,0.001574 0.002,0.001953 0.794884,0.3376071 1.647604,0.5078125 2.566404,0.5078125 0.84915,0 1.6504,-0.1529345 2.41211,-0.45703125 l 0.004,-0.001953 c 0.75535,-0.31967182 1.3591,-0.77503313 1.82422,-1.37304687 0.45453,-0.60231835 0.68554,-1.35110045 0.68554,-2.27539065 0,-0.6315972 -0.14021,-1.2344448 -0.42382,-1.8183594 -0.27749,-0.5712828 -0.73949,-1.0938574 -1.4004,-1.5683593 a 0.26039799,0.26039799 0 0 1 -0.0371,-0.3886719 l 1.12304,-1.1914062 -0.7168,-0.7207032 -3.6621,3.8320313 0.71679,0.7167969 1.35157,-1.3964844 a 0.26039799,0.26039799 0 0 1 0.3496,-0.023437 c 0.4483,0.3549032 0.78431,0.7562091 0.99805,1.203125 0.20963,0.4207354 0.31641,0.8684227 0.31641,1.3300781 0,0.9134747 -0.37503,1.6621848 -1.0918,2.14648438 a 0.26039799,0.26039799 0 0 1 -0.002,0.001953 c -0.67868,0.4524522 -1.4685,0.67773438 -2.3418,0.67773438 -0.98564,0 -1.86288,-0.29445165 -2.595702,-0.87695313 -0.747868,-0.59445645 -1.128907,-1.45774905 -1.128907,-2.50585935 0,-0.7225184 0.216155,-1.5026214 0.634766,-2.3398438 a 0.26039799,0.26039799 0 0 1 0.002,-0.00391 c 0.415507,-0.796392 1.1198,-1.5621101 2.05078,-2.3164063 l -0.57812,-0.7695312 c -0.68782,0.4749114 -1.285479,0.959377 -1.767582,1.4570312 -0.515322,0.5324991 -0.925838,1.0782278 -1.230469,1.6367188 a 0.26039799,0.26039799 0 0 1 -0.414062,0.056641 c -0.939861,-0.9582881 -1.423828,-2.1015474 -1.423828,-3.3828125 0,-1.196321 0.355993,-2.227154 1.066406,-3.050781 l 0.002,-0.002 c 0.70025,-0.828471 1.613861,-1.45424 2.72461,-1.873047 a 0.26039799,0.26039799 0 0 1 0.002,0 c 1.123539,-0.416797 2.320639,-0.625 3.583979,-0.625 1.22753,0 2.39504,0.19914 3.5,0.597656 1.11082,0.400617 2.02518,0.999308 2.72657,1.792969 0.72807,0.786715 1.09571,1.776316 1.0957,2.9218748 1e-5,0.7701869 -0.20811,1.5818831 -0.56055,2.4199218 0.77538,0.036785 1.45567,0.1633948 1.98633,0.4453125 0.64082,0.3316619 1.00977,0.887263 1.00977,1.5546875 0,0.7089871 -0.41481,1.283223 -1.12891,1.6113282 a 0.26039799,0.26039799 0 0 1 -0.004,0.00195 c -0.64953,0.2886816 -1.46769,0.4226834 -2.43359,0.4355469 l -0.54687,0.6835937 2.95312,4.0390625 1.21875,-0.94140625 -2.21484,-2.75585935 a 0.26039799,0.26039799 0 0 1 0.17578,-0.4238282 c 1.11286,-0.1198467 1.98924,-0.4333396 2.64844,-0.9277343 0.65217,-0.4891241 0.95507,-1.0811805 0.95507,-1.8554688 0,-0.6598759 -0.22662,-1.173103 -0.70703,-1.6054687 a 0.26039799,0.26039799 0 0 1 -0.004,-0.00195 c -0.46976,-0.4373613 -1.09868,-0.7368871 -1.90821,-0.8886718 a 0.26039799,0.26039799 0 0 1 -0.19531,-0.34375 c 0.21938,-0.6074963 0.32813,-1.2285002 0.32813,-1.8691406 0,-0.9625498 -0.23598,-1.8211408 -0.70508,-2.5917968 a 0.26039799,0.26039799 0 0 1 -0.002,-0.0039 c -0.45542,-0.775925 -1.08664,-1.431463 -1.90429,-1.976563 a 0.26039799,0.26039799 0 0 1 -0.006,-0.0039 c -0.80242,-0.563395 -1.73267,-0.992284 -2.80078,-1.285156 -1.06945,-0.293235 -2.21011,-0.441407 -3.42383,-0.441407 z" />
    </g>
  </g>
</svg>
